<mxfile host="app.diagrams.net" agent="Mozilla/5.0 (Windows NT 10.0; Win64; x64) AppleWebKit/537.36 (KHTML, like Gecko) Chrome/130.0.0.0 Safari/537.36" version="24.8.4">
  <diagram name="Page-1" id="JWSUd8eiwI_bRO1IDk6O">
    <mxGraphModel grid="1" page="1" gridSize="10" guides="1" tooltips="1" connect="1" arrows="1" fold="1" pageScale="1" pageWidth="827" pageHeight="1169" math="0" shadow="0">
      <root>
        <mxCell id="0" />
        <mxCell id="1" parent="0" />
        <mxCell id="LC9r17rcyAPtq-gb2Cuy-3" value="&lt;span style=&quot;font-size: 13px; background-color: initial;&quot;&gt;payment locktime&lt;/span&gt;&lt;div&gt;&lt;span style=&quot;font-size: 13px;&quot;&gt;&lt;br&gt;&lt;/span&gt;&lt;span style=&quot;font-size: 13px; background-color: initial;&quot;&gt;payment fee ratio&lt;/span&gt;&lt;br&gt;&lt;span style=&quot;font-size: 13px; background-color: initial;&quot;&gt;&lt;br&gt;&lt;/span&gt;&lt;/div&gt;&lt;div&gt;&lt;span style=&quot;font-size: 13px; background-color: initial;&quot;&gt;geographic distance&lt;/span&gt;&lt;br&gt;&lt;span style=&quot;font-size: 13px; background-color: initial;&quot;&gt;&lt;br&gt;&lt;/span&gt;&lt;/div&gt;&lt;div&gt;&lt;span style=&quot;font-size: 13px; background-color: initial;&quot;&gt;carbon intensity&lt;/span&gt;&lt;br&gt;&lt;span style=&quot;font-size: 13px; background-color: initial;&quot;&gt;&lt;br&gt;&lt;/span&gt;&lt;/div&gt;&lt;div&gt;&lt;span style=&quot;font-size: 13px; background-color: initial;&quot;&gt;inter-country hops&lt;/span&gt;&lt;br&gt;&lt;span style=&quot;font-size: 13px; background-color: initial;&quot;&gt;&lt;br&gt;&lt;/span&gt;&lt;/div&gt;&lt;div&gt;&lt;span style=&quot;font-size: 13px; background-color: initial;&quot;&gt;inter-continental hops&lt;/span&gt;&lt;/div&gt;" style="text;strokeColor=none;fillColor=none;html=1;whiteSpace=wrap;verticalAlign=middle;overflow=hidden;rotation=-90;" vertex="1" parent="1">
          <mxGeometry x="147.5" y="20" width="135" height="200" as="geometry" />
        </mxCell>
        <mxCell id="LC9r17rcyAPtq-gb2Cuy-7" value="&lt;font style=&quot;text-wrap-mode: nowrap;&quot;&gt;&lt;i&gt;&lt;span style=&quot;text-wrap-mode: wrap;&quot;&gt;x&lt;/span&gt;&lt;sub style=&quot;text-wrap-mode: wrap;&quot;&gt;u,0,0&amp;nbsp; &amp;nbsp;&amp;nbsp;&lt;/sub&gt;&lt;span style=&quot;text-wrap-mode: wrap;&quot;&gt;x&lt;/span&gt;&lt;sub style=&quot;text-wrap-mode: wrap;&quot;&gt;u,1,0&amp;nbsp; &amp;nbsp; &amp;nbsp; &amp;nbsp;&lt;span style=&quot;font-size: 12px;&quot;&gt;...&amp;nbsp; &amp;nbsp;&amp;nbsp;&lt;/span&gt;&lt;/sub&gt;&lt;sub style=&quot;text-wrap-mode: wrap;&quot;&gt;&amp;nbsp; &amp;nbsp;&lt;/sub&gt;&lt;span style=&quot;text-wrap-mode: wrap;&quot;&gt;x&lt;/span&gt;&lt;sub style=&quot;text-wrap-mode: wrap;&quot;&gt;u,4,0&amp;nbsp; &amp;nbsp;&amp;nbsp;&lt;/sub&gt;&lt;span style=&quot;text-wrap-mode: wrap;&quot;&gt;x&lt;/span&gt;&lt;sub style=&quot;text-wrap-mode: wrap;&quot;&gt;u,5,0&lt;/sub&gt;&lt;/i&gt;&lt;/font&gt;&lt;div style=&quot;font-size: 24px; text-wrap-mode: nowrap;&quot;&gt;&lt;font style=&quot;font-size: 12px;&quot;&gt;&lt;i&gt;&lt;span style=&quot;text-wrap-mode: wrap;&quot;&gt;x&lt;/span&gt;&lt;sub style=&quot;text-wrap-mode: wrap;&quot;&gt;u,0,1&amp;nbsp; &amp;nbsp;&amp;nbsp;&lt;/sub&gt;&lt;span style=&quot;text-wrap-mode: wrap;&quot;&gt;x&lt;/span&gt;&lt;sub style=&quot;text-wrap-mode: wrap;&quot;&gt;u,1,1&amp;nbsp;&lt;/sub&gt;&lt;/i&gt;&lt;i&gt;&lt;sub style=&quot;text-wrap-mode: wrap;&quot;&gt;&amp;nbsp; &amp;nbsp; &amp;nbsp;&amp;nbsp;&lt;span style=&quot;font-size: 12px;&quot;&gt;...&amp;nbsp; &amp;nbsp;&amp;nbsp;&lt;/span&gt;&lt;/sub&gt;&lt;sub style=&quot;text-wrap-mode: wrap;&quot;&gt;&amp;nbsp; &amp;nbsp;&lt;/sub&gt;&lt;/i&gt;&lt;i&gt;&lt;span style=&quot;text-wrap-mode: wrap;&quot;&gt;x&lt;/span&gt;&lt;sub style=&quot;text-wrap-mode: wrap;&quot;&gt;u,4,1&amp;nbsp; &amp;nbsp;&amp;nbsp;&lt;/sub&gt;&lt;span style=&quot;text-wrap-mode: wrap;&quot;&gt;x&lt;/span&gt;&lt;sub style=&quot;text-wrap-mode: wrap;&quot;&gt;u,5,1&lt;/sub&gt;&lt;/i&gt;&lt;/font&gt;&lt;/div&gt;&lt;div style=&quot;font-size: 24px; text-wrap-mode: nowrap;&quot;&gt;&lt;i style=&quot;font-size: 12px;&quot;&gt;&lt;sub style=&quot;text-wrap-mode: wrap;&quot;&gt;&amp;nbsp; &amp;nbsp; &amp;nbsp; &amp;nbsp;&lt;span style=&quot;font-size: 12px;&quot;&gt;...&amp;nbsp; &amp;nbsp;&amp;nbsp;&lt;/span&gt;&lt;/sub&gt;&lt;sub style=&quot;text-wrap-mode: wrap;&quot;&gt;&amp;nbsp; &amp;nbsp;&lt;/sub&gt;&lt;/i&gt;&lt;/div&gt;&lt;div style=&quot;font-size: 24px; text-wrap-mode: nowrap;&quot;&gt;&lt;font style=&quot;font-size: 12px;&quot;&gt;&lt;i&gt;&lt;span style=&quot;text-wrap-mode: wrap;&quot;&gt;x&lt;/span&gt;&lt;sub style=&quot;text-wrap-mode: wrap;&quot;&gt;u,0,k-1&amp;nbsp;&amp;nbsp;&lt;/sub&gt;&lt;span style=&quot;text-wrap-mode: wrap;&quot;&gt;x&lt;/span&gt;&lt;sub style=&quot;text-wrap-mode: wrap;&quot;&gt;u,1,k-1&amp;nbsp;&lt;/sub&gt;&lt;/i&gt;&lt;i&gt;&lt;sub style=&quot;text-wrap-mode: wrap;&quot;&gt;&amp;nbsp; &amp;nbsp; &amp;nbsp; &amp;nbsp;&lt;span style=&quot;font-size: 12px;&quot;&gt;...&amp;nbsp; &amp;nbsp;&amp;nbsp;&lt;/span&gt;&lt;/sub&gt;&lt;sub style=&quot;text-wrap-mode: wrap;&quot;&gt;&amp;nbsp; &amp;nbsp;&lt;/sub&gt;&lt;/i&gt;&lt;i&gt;&lt;span style=&quot;text-wrap-mode: wrap;&quot;&gt;x&lt;/span&gt;&lt;sub style=&quot;text-wrap-mode: wrap;&quot;&gt;u,4,k-1&amp;nbsp;&amp;nbsp;&lt;/sub&gt;&lt;span style=&quot;text-wrap-mode: wrap;&quot;&gt;x&lt;/span&gt;&lt;sub style=&quot;text-wrap-mode: wrap;&quot;&gt;u,5,k-1&lt;/sub&gt;&lt;/i&gt;&lt;/font&gt;&lt;/div&gt;" style="shape=partialRectangle;whiteSpace=wrap;html=1;bottom=0;top=0;fillColor=none;fontFamily=Times New Roman;" vertex="1" parent="1">
          <mxGeometry x="110" y="190" width="210" height="110" as="geometry" />
        </mxCell>
        <mxCell id="LC9r17rcyAPtq-gb2Cuy-8" value="&lt;span style=&quot;color: rgb(12, 13, 14); font-family: Georgia, Cambria, &amp;quot;Times New Roman&amp;quot;, Times, serif; font-size: 15px; text-align: left; text-wrap-mode: wrap; background-color: rgb(255, 255, 255);&quot;&gt;â§º&lt;/span&gt;" style="text;html=1;align=center;verticalAlign=middle;resizable=0;points=[];autosize=1;strokeColor=none;fillColor=none;" vertex="1" parent="1">
          <mxGeometry x="320" y="230" width="30" height="30" as="geometry" />
        </mxCell>
        <mxCell id="LC9r17rcyAPtq-gb2Cuy-9" value="&lt;font style=&quot;text-wrap-mode: nowrap;&quot;&gt;&lt;i&gt;&lt;span style=&quot;text-wrap-mode: wrap;&quot;&gt;x&lt;/span&gt;&lt;/i&gt;&lt;i style=&quot;color: rgb(12, 13, 14); font-family: Georgia, Cambria, &amp;quot;Times New Roman&amp;quot;, Times, serif; text-align: left; text-wrap-mode: wrap;&quot;&gt;&lt;sub style=&quot;&quot;&gt;&lt;font style=&quot;font-size: 10px;&quot;&gt;v&lt;/font&gt;&lt;/sub&gt;&lt;/i&gt;&lt;i&gt;&lt;sub style=&quot;text-wrap-mode: wrap;&quot;&gt;,0,0&amp;nbsp; &amp;nbsp;&amp;nbsp;&lt;/sub&gt;&lt;span style=&quot;text-wrap-mode: wrap;&quot;&gt;x&lt;/span&gt;&lt;/i&gt;&lt;i style=&quot;text-wrap-mode: wrap; color: rgb(12, 13, 14); font-family: Georgia, Cambria, &amp;quot;Times New Roman&amp;quot;, Times, serif; text-align: left;&quot;&gt;&lt;sub&gt;v&lt;/sub&gt;&lt;/i&gt;&lt;i&gt;&lt;sub style=&quot;text-wrap-mode: wrap;&quot;&gt;,1,0&lt;/sub&gt;&lt;/i&gt;&lt;i&gt;&lt;sub style=&quot;text-wrap-mode: wrap;&quot;&gt;&amp;nbsp; &amp;nbsp; &amp;nbsp; &amp;nbsp;&lt;span style=&quot;font-size: 12px;&quot;&gt;...&amp;nbsp; &amp;nbsp;&amp;nbsp;&lt;/span&gt;&lt;/sub&gt;&lt;sub style=&quot;text-wrap-mode: wrap;&quot;&gt;&amp;nbsp; &amp;nbsp;&lt;/sub&gt;&lt;/i&gt;&lt;i&gt;&lt;span style=&quot;text-wrap-mode: wrap;&quot;&gt;x&lt;/span&gt;&lt;/i&gt;&lt;i style=&quot;text-wrap-mode: wrap; color: rgb(12, 13, 14); font-family: Georgia, Cambria, &amp;quot;Times New Roman&amp;quot;, Times, serif; text-align: left;&quot;&gt;&lt;sub&gt;v&lt;/sub&gt;&lt;/i&gt;&lt;i&gt;&lt;sub style=&quot;text-wrap-mode: wrap;&quot;&gt;,4,0&amp;nbsp; &amp;nbsp;&amp;nbsp;&lt;/sub&gt;&lt;span style=&quot;text-wrap-mode: wrap;&quot;&gt;x&lt;/span&gt;&lt;/i&gt;&lt;i style=&quot;text-wrap-mode: wrap; color: rgb(12, 13, 14); font-family: Georgia, Cambria, &amp;quot;Times New Roman&amp;quot;, Times, serif; text-align: left;&quot;&gt;&lt;sub&gt;v&lt;/sub&gt;&lt;/i&gt;&lt;i&gt;&lt;sub style=&quot;text-wrap-mode: wrap;&quot;&gt;,5,0&lt;/sub&gt;&lt;/i&gt;&lt;/font&gt;&lt;div style=&quot;font-size: 24px; text-wrap-mode: nowrap;&quot;&gt;&lt;font style=&quot;font-size: 12px;&quot;&gt;&lt;i&gt;&lt;span style=&quot;text-wrap-mode: wrap;&quot;&gt;x&lt;/span&gt;&lt;/i&gt;&lt;/font&gt;&lt;i style=&quot;background-color: initial; font-size: 12px; text-wrap-mode: wrap; color: rgb(12, 13, 14); font-family: Georgia, Cambria, &amp;quot;Times New Roman&amp;quot;, Times, serif; text-align: left;&quot;&gt;&lt;sub&gt;v&lt;/sub&gt;&lt;/i&gt;&lt;font style=&quot;background-color: initial; font-size: 12px;&quot;&gt;&lt;i&gt;&lt;sub style=&quot;text-wrap-mode: wrap;&quot;&gt;,0,1&amp;nbsp; &amp;nbsp;&amp;nbsp;&lt;/sub&gt;&lt;span style=&quot;text-wrap-mode: wrap;&quot;&gt;x&lt;/span&gt;&lt;/i&gt;&lt;/font&gt;&lt;i style=&quot;background-color: initial; text-wrap-mode: wrap; font-size: 12px; color: rgb(12, 13, 14); font-family: Georgia, Cambria, &amp;quot;Times New Roman&amp;quot;, Times, serif; text-align: left;&quot;&gt;&lt;sub&gt;v&lt;/sub&gt;&lt;/i&gt;&lt;i style=&quot;background-color: initial; font-size: 12px;&quot;&gt;&lt;sub style=&quot;text-wrap-mode: wrap;&quot;&gt;,1,1&lt;/sub&gt;&lt;/i&gt;&lt;i style=&quot;background-color: initial; font-size: 12px;&quot;&gt;&lt;sub style=&quot;text-wrap-mode: wrap;&quot;&gt;&amp;nbsp; &amp;nbsp; &amp;nbsp; &amp;nbsp;&lt;span style=&quot;font-size: 12px;&quot;&gt;...&amp;nbsp; &amp;nbsp;&amp;nbsp;&lt;/span&gt;&lt;/sub&gt;&lt;sub style=&quot;text-wrap-mode: wrap;&quot;&gt;&amp;nbsp; &amp;nbsp;&lt;/sub&gt;&lt;/i&gt;&lt;i style=&quot;background-color: initial; font-size: 12px;&quot;&gt;&lt;span style=&quot;text-wrap-mode: wrap;&quot;&gt;x&lt;/span&gt;&lt;/i&gt;&lt;i style=&quot;background-color: initial; font-size: 12px; text-wrap-mode: wrap; color: rgb(12, 13, 14); font-family: Georgia, Cambria, &amp;quot;Times New Roman&amp;quot;, Times, serif; text-align: left;&quot;&gt;&lt;sub&gt;v&lt;/sub&gt;&lt;/i&gt;&lt;i style=&quot;background-color: initial; font-size: 12px;&quot;&gt;&lt;sub style=&quot;text-wrap-mode: wrap;&quot;&gt;,4,1&amp;nbsp; &amp;nbsp;&amp;nbsp;&lt;/sub&gt;&lt;span style=&quot;text-wrap-mode: wrap;&quot;&gt;x&lt;/span&gt;&lt;/i&gt;&lt;i style=&quot;background-color: initial; font-size: 12px; text-wrap-mode: wrap; color: rgb(12, 13, 14); font-family: Georgia, Cambria, &amp;quot;Times New Roman&amp;quot;, Times, serif; text-align: left;&quot;&gt;&lt;sub&gt;v&lt;/sub&gt;&lt;/i&gt;&lt;i style=&quot;background-color: initial; font-size: 12px;&quot;&gt;&lt;sub style=&quot;text-wrap-mode: wrap;&quot;&gt;,5,1&lt;/sub&gt;&lt;/i&gt;&lt;/div&gt;&lt;div style=&quot;font-size: 24px; text-wrap-mode: nowrap;&quot;&gt;&lt;i style=&quot;font-size: 12px;&quot;&gt;&lt;sub style=&quot;text-wrap-mode: wrap;&quot;&gt;&amp;nbsp; &amp;nbsp; &amp;nbsp; &amp;nbsp;&lt;span style=&quot;font-size: 12px;&quot;&gt;...&amp;nbsp; &amp;nbsp;&amp;nbsp;&lt;/span&gt;&lt;/sub&gt;&lt;sub style=&quot;text-wrap-mode: wrap;&quot;&gt;&amp;nbsp; &amp;nbsp;&lt;/sub&gt;&lt;/i&gt;&lt;/div&gt;&lt;div style=&quot;font-size: 24px; text-wrap-mode: nowrap;&quot;&gt;&lt;font style=&quot;font-size: 12px;&quot;&gt;&lt;i&gt;&lt;span style=&quot;text-wrap-mode: wrap;&quot;&gt;x&lt;/span&gt;&lt;/i&gt;&lt;/font&gt;&lt;i style=&quot;background-color: initial; font-size: 12px; text-wrap-mode: wrap; color: rgb(12, 13, 14); font-family: Georgia, Cambria, &amp;quot;Times New Roman&amp;quot;, Times, serif; text-align: left;&quot;&gt;&lt;sub&gt;v&lt;/sub&gt;&lt;/i&gt;&lt;font style=&quot;background-color: initial; font-size: 12px;&quot;&gt;&lt;i&gt;&lt;sub style=&quot;text-wrap-mode: wrap;&quot;&gt;,0,k-1&amp;nbsp;&amp;nbsp;&lt;/sub&gt;&lt;span style=&quot;text-wrap-mode: wrap;&quot;&gt;x&lt;/span&gt;&lt;/i&gt;&lt;/font&gt;&lt;i style=&quot;background-color: initial; text-wrap-mode: wrap; font-size: 12px; color: rgb(12, 13, 14); font-family: Georgia, Cambria, &amp;quot;Times New Roman&amp;quot;, Times, serif; text-align: left;&quot;&gt;&lt;sub&gt;v&lt;/sub&gt;&lt;/i&gt;&lt;font style=&quot;background-color: initial; font-size: 12px;&quot;&gt;&lt;i&gt;&lt;sub style=&quot;text-wrap-mode: wrap;&quot;&gt;,1,k-1&lt;/sub&gt;&lt;/i&gt;&lt;i&gt;&lt;sub style=&quot;text-wrap-mode: wrap;&quot;&gt;&amp;nbsp; &amp;nbsp; &amp;nbsp; &amp;nbsp;&lt;span style=&quot;font-size: 12px;&quot;&gt;...&amp;nbsp; &amp;nbsp;&amp;nbsp;&lt;/span&gt;&lt;/sub&gt;&lt;sub style=&quot;text-wrap-mode: wrap;&quot;&gt;&amp;nbsp; &amp;nbsp;&lt;/sub&gt;&lt;/i&gt;&lt;i&gt;&lt;span style=&quot;text-wrap-mode: wrap;&quot;&gt;x&lt;/span&gt;&lt;/i&gt;&lt;/font&gt;&lt;i style=&quot;background-color: initial; text-wrap-mode: wrap; font-size: 12px; color: rgb(12, 13, 14); font-family: Georgia, Cambria, &amp;quot;Times New Roman&amp;quot;, Times, serif; text-align: left;&quot;&gt;&lt;sub&gt;v&lt;/sub&gt;&lt;/i&gt;&lt;font style=&quot;background-color: initial; font-size: 12px;&quot;&gt;&lt;i&gt;&lt;sub style=&quot;text-wrap-mode: wrap;&quot;&gt;,4,k-1&amp;nbsp;&amp;nbsp;&lt;/sub&gt;&lt;span style=&quot;text-wrap-mode: wrap;&quot;&gt;x&lt;/span&gt;&lt;/i&gt;&lt;/font&gt;&lt;i style=&quot;background-color: initial; text-wrap-mode: wrap; font-size: 12px; color: rgb(12, 13, 14); font-family: Georgia, Cambria, &amp;quot;Times New Roman&amp;quot;, Times, serif; text-align: left;&quot;&gt;&lt;sub&gt;v&lt;/sub&gt;&lt;/i&gt;&lt;i style=&quot;background-color: initial; font-size: 12px;&quot;&gt;&lt;sub style=&quot;text-wrap-mode: wrap;&quot;&gt;,5,k-1&lt;/sub&gt;&lt;/i&gt;&lt;/div&gt;" style="shape=partialRectangle;whiteSpace=wrap;html=1;bottom=0;top=0;fillColor=none;fontFamily=Times New Roman;" vertex="1" parent="1">
          <mxGeometry x="350" y="190" width="210" height="110" as="geometry" />
        </mxCell>
        <mxCell id="LC9r17rcyAPtq-gb2Cuy-10" value="&lt;span style=&quot;color: rgb(12, 13, 14); font-family: Georgia, Cambria, &amp;quot;Times New Roman&amp;quot;, Times, serif; font-size: 15px; text-align: left; text-wrap-mode: wrap; background-color: rgb(255, 255, 255);&quot;&gt;&lt;i&gt;S&lt;sub&gt;u,v&amp;nbsp;&lt;/sub&gt;=&lt;/i&gt;&lt;/span&gt;" style="text;html=1;align=center;verticalAlign=middle;resizable=0;points=[];autosize=1;strokeColor=none;fillColor=none;" vertex="1" parent="1">
          <mxGeometry x="43" y="230" width="60" height="30" as="geometry" />
        </mxCell>
      </root>
    </mxGraphModel>
  </diagram>
</mxfile>
